<?xml version="1.0" encoding="UTF-8" standalone="no"?>
<!-- Created with Inkscape (http://www.inkscape.org/) -->

<svg
   id="svg1340"
   sodipodi:version="0.32"
   inkscape:version="1.1 (c68e22c387, 2021-05-23)"
   width="612.69727"
   height="1222.8805"
   sodipodi:docname="Modele_cinematique_corps_humain_blancs.svg"
   version="1.0"
   inkscape:output_extension="org.inkscape.output.svg.inkscape"
   xmlns:inkscape="http://www.inkscape.org/namespaces/inkscape"
   xmlns:sodipodi="http://sodipodi.sourceforge.net/DTD/sodipodi-0.dtd"
   xmlns="http://www.w3.org/2000/svg"
   xmlns:svg="http://www.w3.org/2000/svg"
   xmlns:rdf="http://www.w3.org/1999/02/22-rdf-syntax-ns#"
   xmlns:cc="http://creativecommons.org/ns#"
   xmlns:dc="http://purl.org/dc/elements/1.1/">
  <metadata
     id="metadata1345">
    <rdf:RDF>
      <cc:Work
         rdf:about="">
        <dc:format>image/svg+xml</dc:format>
        <dc:type
           rdf:resource="http://purl.org/dc/dcmitype/StillImage" />
        <dc:title>Principales parties du corps humain pour une étude mécanique</dc:title>
        <cc:license
           rdf:resource="http://creativecommons.org/licenses/publicdomain/" />
        <dc:date>15 février 2010</dc:date>
        <dc:creator>
          <cc:Agent>
            <dc:title>Christophe Dang Ngoc Chan</dc:title>
          </cc:Agent>
        </dc:creator>
        <dc:publisher>
          <cc:Agent>
            <dc:title>Wikimedia Foundation</dc:title>
          </cc:Agent>
        </dc:publisher>
        <dc:language>fr</dc:language>
        <dc:contributor>
          <cc:Agent>
            <dc:title>http://en.wikipedia.org/wiki/User:OldakQuill</dc:title>
          </cc:Agent>
        </dc:contributor>
        <dc:subject>
          <rdf:Bag>
            <rdf:li>body parts</rdf:li>
            <rdf:li>mechanical study</rdf:li>
            <rdf:li>joints</rdf:li>
            <rdf:li>kinematic pairs</rdf:li>
          </rdf:Bag>
        </dc:subject>
        <dc:description>Pour un exercice : détermination des liaisons mécaniques du corps humain</dc:description>
      </cc:Work>
      <cc:License
         rdf:about="http://creativecommons.org/licenses/publicdomain/">
        <cc:permits
           rdf:resource="http://creativecommons.org/ns#Reproduction" />
        <cc:permits
           rdf:resource="http://creativecommons.org/ns#Distribution" />
        <cc:permits
           rdf:resource="http://creativecommons.org/ns#DerivativeWorks" />
      </cc:License>
    </rdf:RDF>
  </metadata>
  <defs
     id="defs1343">
    <marker
       inkscape:stockid="DotM"
       orient="auto"
       refY="0"
       refX="0"
       id="DotM"
       style="overflow:visible">
      <path
         id="path3325"
         d="M -2.5,-1 C -2.5,1.76 -4.74,4 -7.5,4 C -10.26,4 -12.5,1.76 -12.5,-1 C -12.5,-3.76 -10.26,-6 -7.5,-6 C -4.74,-6 -2.5,-3.76 -2.5,-1 z"
         style="fill-rule:evenodd;stroke:#000000;stroke-width:1pt;marker-start:none;marker-end:none"
         transform="matrix(0.4,0,0,0.4,2.96,0.4)" />
    </marker>
    <inkscape:perspective
       sodipodi:type="inkscape:persp3d"
       inkscape:vp_x="0 : 610.5 : 1"
       inkscape:vp_y="0 : 1000 : 0"
       inkscape:vp_z="387 : 610.5 : 1"
       inkscape:persp3d-origin="193.5 : 407 : 1"
       id="perspective7" />
  </defs>
  <sodipodi:namedview
     inkscape:window-height="729"
     inkscape:window-width="1016"
     inkscape:pageshadow="2"
     inkscape:pageopacity="0.0"
     borderopacity="1.0"
     bordercolor="#666666"
     pagecolor="#ffffff"
     id="base"
     inkscape:zoom="0.35355339"
     inkscape:cx="156.97771"
     inkscape:cy="578.41335"
     inkscape:window-x="0"
     inkscape:window-y="0"
     inkscape:current-layer="svg1340"
     showgrid="false"
     inkscape:pagecheckerboard="0"
     inkscape:window-maximized="0" />
  <path
     style="fill:none;fill-rule:evenodd;stroke:#000000;stroke-width:2;stroke-linecap:butt;stroke-linejoin:miter;stroke-miterlimit:4;stroke-dasharray:16, 4, 2, 4;stroke-dashoffset:0;stroke-opacity:1"
     d="M 192.45436,1 L 192.45436,1220.1454"
     id="path3174"
     sodipodi:nodetypes="cc" />
  <path
     style="fill:#000000"
     d="M 192.59597,669.38679 C 192.11988,669.72994 191.63963,670.10206 191.20589,670.47415 C 189.02978,672.34099 176.14238,711.97693 173.43806,725.12013 C 172.1815,731.22712 171.00218,742.74391 170.36653,755.11547 C 169.16749,778.45225 164.97238,823.60304 162.92583,835.19762 C 160.51715,848.8438 160.19971,849.98998 156.69431,857.69762 C 152.84323,866.16536 152.84966,865.67462 156.30124,887.69762 C 157.46493,895.12262 158.41039,904.34762 158.40225,908.19762 C 158.3655,925.5922 154.47027,946.73676 147.44122,967.69762 C 144.33399,976.96351 143.46576,981.23746 142.97204,989.69762 C 142.1777,1003.3092 139.69271,1020.6151 137.44375,1028.1976 C 136.46497,1031.4976 134.90337,1038.9226 133.97353,1044.6976 C 133.04369,1050.4726 131.63484,1057.2394 130.84275,1059.735 C 129.92536,1062.6254 129.55861,1066.7998 129.83241,1071.235 C 130.06881,1075.0644 130.56927,1087.1976 130.94453,1098.1976 C 131.45069,1113.0342 132.24582,1121.328 134.02448,1130.3231 C 135.34318,1136.9923 136.42212,1143.8772 136.42212,1145.6229 C 136.42212,1150.0149 134.03287,1154.2105 129.95306,1156.9828 C 128.05702,1158.2712 123.95063,1161.7034 120.82777,1164.6099 L 115.14983,1169.8945 L 115.69225,1177.8083 C 116.24859,1185.9252 115.00683,1193.1873 112.32948,1197.4744 C 111.56297,1198.7018 109.08246,1200.5772 106.81724,1201.642 C 102.83282,1203.5149 100.18717,1207.3466 97.993431,1214.4217 C 96.473691,1219.3231 85.477421,1223.9209 78.258201,1222.6736 C 76.243041,1222.3254 73.446371,1221.2884 72.043381,1220.3691 C 70.640391,1219.4498 67.973961,1218.6977 66.117981,1218.6977 C 63.548531,1218.6977 61.999631,1217.8803 59.625521,1215.2713 C 57.910651,1213.3868 55.925841,1211.4743 55.214841,1211.0213 C 53.074581,1209.6577 49.818781,1204.4488 48.449701,1200.1977 C 47.741181,1197.9977 46.699141,1195.6161 46.134061,1194.9052 C 44.068051,1192.3061 45.170411,1185.1712 48.829241,1177.461 C 50.805321,1173.2968 52.422121,1169.4824 52.422121,1168.9848 C 52.422121,1168.4871 54.043781,1165.4064 56.025811,1162.1388 C 58.007841,1158.8711 61.865181,1151.0226 64.597691,1144.6976 C 70.053401,1132.069 76.094711,1119.6513 78.764901,1115.5771 C 79.709471,1114.136 80.487471,1111.6609 80.493801,1110.0771 C 80.601771,1083.0444 79.727621,1069.7003 77.193501,1059.6976 C 72.133421,1039.7243 67.250421,1014.1079 65.375051,997.69762 C 64.777941,992.47262 63.403011,982.79762 62.319661,976.19762 C 59.826681,961.00987 58.429841,938.85448 59.514041,931.69762 C 59.972311,928.67262 61.037771,919.44762 61.881731,911.19762 C 62.725701,902.94762 64.137921,892.59762 65.020011,888.19762 C 66.871671,878.96125 71.852451,862.79801 74.418741,857.69762 C 75.970681,854.6132 76.059531,853.06962 75.167021,844.69762 C 74.610001,839.47262 74.094821,825.2323 74.022171,813.05246 C 73.893071,791.4087 73.830371,790.77475 71.253041,785.05246 C 68.475751,778.88623 67.244141,774.72638 65.522611,765.69762 C 64.945831,762.67262 63.547051,755.72825 62.414201,750.26568 C 61.281351,744.80311 60.076201,735.47026 59.736101,729.52601 L 59.117721,718.71828 L 52.217861,712.58604 C 46.428691,707.44093 44.527931,704.87941 40.409881,696.67323 C 37.710411,691.29391 34.152651,684.76532 32.503731,682.16526 C 30.854821,679.5652 29.267681,675.58382 28.976751,673.31775 C 26.246891,652.05476 25.422121,643.11387 25.422121,634.78402 C 25.422121,628.87839 24.842541,623.31339 23.947581,620.62576 C 22.602241,616.58564 19.495761,599.45368 15.884971,576.16127 C 15.114531,571.19127 13.864891,565.34127 13.108011,563.16127 C 12.351131,560.98126 10.742231,554.02262 9.5326912,547.69762 C 8.3231512,541.37262 6.4721612,532.37262 5.4194012,527.69762 C 0.4205912,505.49951 0.0679812,502.53775 0.0023812,482.19762 C -0.0633388,461.81816 1.2217612,451.16327 5.0496912,440.34997 C 9.5423712,427.65883 10.676791,418.78353 10.565341,397.19762 C 10.396271,364.45275 13.662521,337.25968 19.262211,324.79204 C 21.041831,320.82974 21.187921,318.8677 20.714211,305.29204 C 20.076261,287.00965 21.567911,278.39794 27.451911,266.39364 C 29.635521,261.9387 31.422121,257.88333 31.422121,257.38171 C 31.422121,254.94315 41.152501,241.31329 46.688341,235.9975 C 56.106601,226.95362 60.090201,225.24488 75.422121,223.67233 C 90.054001,222.17157 90.519261,222.02966 105.03677,214.63926 C 112.53655,210.82136 119.64122,207.69762 120.82492,207.69762 C 122.00862,207.69762 123.86474,207.08971 124.94961,206.34671 C 126.03449,205.6037 129.39712,204.22306 132.42212,203.27861 C 140.69595,200.6954 150.54694,195.41054 152.86359,192.31216 C 154.63897,189.93771 154.96627,187.81479 155.24312,176.87833 C 155.54976,164.76498 155.42503,163.82088 152.45538,155.77706 C 150.5951,150.73815 147.97782,145.84137 145.93819,143.58373 C 144.06354,141.50872 142.00818,137.87298 141.37073,135.5043 C 140.73328,133.13563 139.17728,129.39763 137.91296,127.19763 C 136.64863,124.99763 135.2917,121.17263 134.89755,118.69763 C 134.50341,116.22263 133.11019,112.17621 131.80152,109.70559 C 130.49285,107.23496 129.42212,104.24316 129.42212,103.05713 C 129.42212,101.8711 128.07212,98.33432 126.42212,95.19762 C 122.59676,87.925501 122.57293,83.310555 126.30504,72.527298 C 128.61659,65.848495 129.09922,63.008475 128.74019,58.197625 C 128.19883,50.943555 131.05879,44.376485 136.14017,41.205695 C 137.91009,40.101255 140.78713,38.297625 142.53358,37.197615 C 144.5277,35.941625 147.06293,32.593615 149.34868,28.197615 C 152.39287,22.342975 153.71929,20.836215 157.45527,18.988835 C 160.31067,17.576895 163.83981,16.765185 167.23786,16.738835 C 173.11159,16.693295 175.03036,15.911425 180.92212,11.162735 C 184.65317,8.1555513 188.28249,6.0338725 192.38146,4.5319242 M 192.22458,220.00706 C 187.78279,217.02341 185.17143,213.51451 186.04039,211.25002 C 186.85664,209.12291 189.53092,209.3149 192.48836,211.50124 M 192.34227,173.20884 C 189.98447,173.32362 187.66614,173.09507 186.42212,172.44499 C 183.1959,170.75906 183.0225,167.16907 186.17212,167.26906 C 187.09657,167.29841 189.40219,167.36861 191.88525,167.44319 M 192.7031,163.0338 C 191.43512,163.08179 190.13622,163.12569 188.83068,163.1641 C 176.46036,163.528 173.35003,163.33544 171.58068,162.09613 C 169.30899,160.50498 168.75578,158.22748 170.39492,157.21444 C 172.98228,155.61536 186.64288,153.17299 192.42212,153.2762 M 192.33795,147.14134 C 185.30449,147.38868 178.10096,147.26408 176.24994,146.57607 C 172.73182,145.26842 171.32959,141.18173 173.00849,137.12917 C 175.88445,130.18716 179.91799,130.20813 178.87554,137.15967 L 178.23301,141.44438 L 184.86284,142.15438 C 187.45377,142.43185 189.81831,142.48183 192.33414,142.26194 M 192.40883,344.15758 C 191.37453,344.81549 189.88659,346.11072 188.51851,347.59224 C 182.3127,354.31266 168.48418,356.69031 135.55539,356.69859 C 109.39617,356.70518 101.87514,355.70182 93.365131,351.07009 C 90.312331,349.40855 88.010481,348.70999 87.447411,349.27422 C 86.635801,350.08749 84.254611,368.98557 84.118021,375.69762 C 84.090041,377.07262 84.414781,384.94762 84.839661,393.19762 C 85.432481,404.7083 86.154651,409.82597 87.944151,415.19762 C 91.779651,426.71088 95.423511,441.83668 95.401281,446.15245 C 95.389821,448.37729 94.727661,453.12262 93.929821,456.69762 C 90.228751,473.28152 88.277311,487.04354 88.106451,497.76523 C 87.929091,508.89529 88.026141,509.48361 90.672121,513.31898 C 94.187771,518.41494 94.138331,520.38133 90.441401,522.49413 C 84.439581,525.92419 81.512111,537.91135 79.524021,567.19762 C 78.963981,575.44762 77.954721,587.40007 77.281241,593.75862 L 76.056721,605.31962 L 80.718951,609.61711 C 85.259111,613.80208 88.393851,619.23245 91.891081,628.97075 C 94.747991,636.92608 100.75388,644.8356 106.78194,648.58147 C 112.78781,652.31354 114.49887,654.69217 114.63554,659.49916 C 114.74295,663.27672 112.27052,666.40312 107.61944,668.37107 C 101.74243,670.85772 92.083751,667.76146 84.063151,660.81968 C 76.468441,654.24651 75.784151,655.06818 77.900411,668.21955 C 79.548491,678.46143 83.700041,690.42013 89.001811,700.19762 C 96.148611,713.37769 95.871491,718.05135 87.725671,721.72009 C 83.665271,723.54883 81.650671,723.80922 74.703761,723.40321 C 67.413271,722.97712 66.420701,723.12674 65.912331,724.72847 C 65.201421,726.96836 66.853071,740.69438 69.037201,750.69762 C 74.968111,777.86099 76.342901,781.81049 86.547911,801.00251 C 87.075751,801.99519 87.781861,805.74419 88.117051,809.33361 L 88.726481,815.85983 L 85.847471,815.52873 C 83.989861,815.31509 82.536011,814.32568 81.749521,812.7399 L 80.530571,810.28217 L 79.469191,813.07381 C 78.885431,814.60921 78.603901,816.18273 78.843561,816.57051 C 79.083231,816.95829 79.763251,822.88303 80.354721,829.7366 C 80.946201,836.59016 81.931951,845.96045 82.545291,850.55946 C 83.652211,858.85951 83.641821,858.93858 81.139721,861.25865 C 75.500721,866.48743 70.271901,889.14707 67.308501,921.19762 C 64.898231,947.26597 64.895221,947.20195 70.404041,987.19762 C 74.937141,1020.1093 77.841341,1036.1208 83.191511,1057.6976 C 85.417791,1066.676 85.824871,1070.6788 86.000631,1085.3197 C 86.113671,1094.7369 86.499711,1103.3667 86.858491,1104.497 C 87.217261,1105.6274 89.098101,1107.4888 91.038141,1108.6335 C 95.654121,1111.357 95.316161,1114.0793 90.309901,1114.4993 C 83.736721,1115.0506 78.443791,1123.1039 67.833511,1148.6976 C 65.211361,1155.0226 62.077671,1161.5476 60.869751,1163.1976 C 59.661831,1164.8476 57.883111,1168.6726 56.917041,1171.6977 C 55.950981,1174.7227 54.455571,1178.4214 53.593911,1179.9169 C 51.852831,1182.9389 52.994051,1185.2721 54.789401,1182.3611 C 57.877471,1177.354 58.104321,1177.1891 59.878191,1178.6612 C 62.214411,1180.6001 61.080871,1184.3786 56.854641,1188.7399 C 53.641241,1192.0559 52.032061,1197.6977 54.299641,1197.6977 C 56.012691,1197.6977 64.422121,1186.4359 64.422121,1184.1418 C 64.422121,1182.8625 64.940391,1181.4954 65.573821,1181.1039 C 67.465491,1179.9348 69.618231,1183.8563 69.056341,1187.4477 C 68.472801,1191.1775 69.336861,1191.5544 71.922121,1188.6977 C 72.917611,1187.5977 74.337351,1186.6977 75.077111,1186.6977 C 77.796811,1186.6977 76.294021,1191.0751 71.510521,1197.0866 C 65.342091,1204.8386 62.616091,1210.2917 64.145001,1211.8206 C 65.708051,1213.3836 67.159571,1212.1696 67.931901,1208.6532 C 68.387051,1206.5809 70.266001,1204.3703 73.912291,1201.6174 C 76.843161,1199.4045 79.505271,1196.5025 79.844621,1195.1504 C 81.053521,1190.3338 84.679531,1193.9003 83.713171,1198.9555 C 83.425461,1200.4606 83.939401,1203.983 84.855271,1206.7831 C 86.890881,1213.0066 85.917511,1214.6977 80.299681,1214.6977 C 76.581811,1214.6977 75.565261,1215.4886 77.172121,1217.1309 C 78.413931,1218.4002 88.752531,1216.7837 91.261751,1214.928 C 92.548551,1213.9763 94.822041,1210.315 96.313941,1206.7917 C 98.689021,1201.1826 99.579851,1200.125 103.4743,1198.2905 C 110.34522,1195.054 111.7519,1191.4849 110.80225,1179.6977 C 108.57953,1152.1086 110.90001,1138.2844 119.97074,1125.0769 C 121.90499,1122.2604 123.92284,1118.4384 124.45484,1116.5834 C 125.86687,1111.66 125.64113,1097.6277 123.82098,1077.1827 C 121.76658,1054.1062 122.27152,1026.4196 124.79276,1023.8984 C 126.21028,1022.4809 126.76565,1022.431 128.5723,1023.5593 C 131.89445,1025.634 132.27988,1024.731 134.88403,1008.7714 C 136.62692,998.09012 136.92078,984.12384 135.42212,983.19762 C 134.87212,982.8577 134.42212,981.81012 134.42212,980.86967 C 134.42212,978.9146 139.99493,965.28437 142.12416,962.03166 C 143.70368,959.61872 148.77244,939.74845 150.37234,929.69762 C 151.66472,921.57867 151.73525,898.40324 150.48708,891.99684 C 149.9728,889.35727 149.27741,885.51012 148.94176,883.44762 C 148.60612,881.38512 147.9064,879.69762 147.38684,879.69762 C 145.89158,879.69762 137.89963,896.44624 135.45758,904.69762 C 132.28751,915.40892 130.32734,919.14007 127.67212,919.51717 C 125.79145,919.78427 125.42556,919.3739 125.4431,917.01717 C 125.45464,915.46642 126.56958,910.43034 127.92074,905.82588 C 131.40183,893.96312 135.02378,885.83022 149.05188,858.37701 C 152.65811,851.31955 153.951,847.32174 155.51987,838.37701 C 158.20068,823.09273 161.20512,792.18672 162.92544,762.19762 C 164.81234,729.30477 166.51994,719.31174 173.94716,697.69762 C 178.41536,684.69462 181.36761,673.9921 181.39858,670.68466 C 181.41888,668.51798 180.72031,667.96679 176.32899,666.68466 C 171.75485,665.34915 170.86322,664.59337 167.57899,659.26778 L 163.92212,653.33794 L 164.19379,636.76778 C 164.35519,626.92372 163.98977,617.8376 163.29356,614.38357 C 162.3072,609.49008 162.35482,608.33634 163.59434,607.09683 C 165.66512,605.02605 168.13841,606.30794 169.39016,610.10078 C 171.12643,615.36172 172.15908,626.68582 171.30457,631.09432 C 170.03081,637.66579 170.30299,648.47674 171.83447,652.14209 C 174.18603,657.77017 176.81255,659.69762 182.13033,659.69762 L 186.83854,659.69762 L 182.74602,655.44762 C 176.80189,649.27475 174.59006,640.65428 176.63654,631.63635 C 177.31538,628.64505 177.88233,622.59762 177.89645,618.19762 C 177.92,610.85748 178.0943,610.17302 180.00963,609.89936 C 183.50032,609.40062 184.89176,612.299 184.89873,620.08338 C 184.90224,623.99621 184.43932,629.67262 183.87003,632.69762 C 181.96227,642.8348 184.9859,651.12316 190.36256,650.49495 C 191.04947,650.41469 191.65594,650.25186 192.18537,649.99344 M 118.86325,886.25619 C 117.31277,885.10485 117.14392,884.45078 118.02425,883.00619 C 118.63042,882.01148 120.20542,881.04409 121.52425,880.85644 C 126.08549,880.20746 127.14543,878.19086 127.6136,869.27102 C 128.01964,861.53503 128.37227,860.4003 132.48672,853.59018 C 136.41525,847.08778 136.92449,845.56132 136.94282,840.23292 C 136.95989,835.2731 137.27552,834.15695 138.74086,833.87475 C 142.46713,833.15714 143.6933,835.66345 143.17308,842.93426 C 142.76788,848.59742 142.04475,850.76758 138.83158,855.96341 C 135.30459,861.6667 134.92961,862.96408 134.42843,871.19762 C 134.12712,876.14762 133.32395,881.18704 132.64362,882.39634 C 129.83946,887.38071 122.9691,889.30509 118.86325,886.25619 z M 97.681081,885.44762 C 97.138831,884.76012 96.393721,882.22452 96.025291,879.81295 C 95.656861,877.40138 94.470421,874.30319 93.388771,872.92809 C 90.895821,869.75882 90.894461,867.99987 93.384351,867.20961 C 95.900651,866.41097 98.683151,867.9112 100.17367,870.87019 C 101.64258,873.7863 103.58439,884.62605 102.85056,885.81341 C 102.04515,887.11659 98.817321,886.88819 97.681081,885.44762 z M 92.936981,841.94762 C 89.713701,825.76811 89.829301,822.76543 93.619451,824.21985 C 95.765661,825.04343 96.959121,828.07328 98.915401,837.6647 C 100.77461,846.78017 100.0704,850.69762 96.572571,850.69762 C 94.993001,850.69762 94.391971,849.25107 92.936981,841.94762 z M 159.62212,603.49762 C 158.96212,602.83762 158.42212,601.48762 158.42212,600.49762 C 158.42212,599.25948 157.6657,598.69762 155.99885,598.69762 C 152.45196,598.69762 148.40934,594.82197 141.664,584.95485 C 134.26773,574.13554 129.28263,564.20242 124.72865,551.21017 C 120.81863,540.05509 119.42297,537.07195 115.28149,531.01744 C 111.7089,525.7946 111.51024,522.69762 114.74781,522.69762 C 119.30009,522.69762 125.49184,532.58094 130.79918,548.31893 C 136.11443,564.08037 144.46716,579.05185 153.82168,589.58453 C 156.35192,592.43345 158.42212,595.42436 158.42212,596.231 C 158.42212,597.03764 159.25238,597.69762 160.26713,597.69762 C 162.71438,597.69762 165.81785,601.22398 165.07479,603.16037 C 164.37198,604.99186 161.30599,605.18149 159.62212,603.49762 z M 179.02638,503.54301 C 177.35562,501.15767 178.42611,497.69762 180.83486,497.69762 C 181.57316,497.69762 182.73743,497.02262 183.42212,496.19762 C 184.91751,494.39579 188.55961,494.23511 190.22212,495.89762 C 192.21117,497.88667 191.64811,502.42592 189.19961,504.14092 C 185.9181,506.43938 180.84629,506.1413 179.02638,503.54301 z M 133.78291,457.19545 C 133.41497,456.2366 135.14437,453.78327 138.5643,450.41257 C 141.64173,447.37943 145.27822,442.37934 147.1083,438.66474 C 150.81252,431.14614 155.87692,419.30131 156.92818,415.69762 C 158.59304,409.99052 168.19908,392.09782 171.78662,388.02153 C 175.88364,383.36637 180.06639,380.69762 183.26547,380.69762 C 187.39282,380.69762 186.29949,383.6406 179.62443,390.49846 C 174.63406,395.62548 171.74317,399.78701 168.30651,406.79096 C 165.76793,411.96462 163.35288,417.32262 162.93972,418.69762 C 159.21189,431.10419 146.92316,453.83241 142.12644,457.19217 C 139.35215,459.13536 134.52805,459.13725 133.78291,457.19545 z M 63.386941,1198.7634 C 64.691551,1196.3257 64.706101,1195.4042 63.427501,1196.1944 C 61.821511,1197.1869 60.203271,1200.6977 61.351751,1200.6977 C 61.901751,1200.6977 62.817591,1199.8273 63.386941,1198.7634 z M 122.2901,1154.6422 C 124.28771,1152.9617 126.9842,1150.7016 128.28229,1149.6197 C 130.37589,1147.8748 130.56517,1147.1187 129.95814,1142.9251 C 128.76375,1134.6739 127.22633,1129.6976 125.8715,1129.6976 C 122.44823,1129.6976 116.42212,1144.2713 116.42212,1152.5503 C 116.42212,1158.584 117.25254,1158.88 122.2901,1154.6422 z M 182.66475,192.64787 C 177.47049,191.57287 176.28632,190.79724 170.26397,184.52538 C 166.24,180.33472 163.33667,178.02688 162.92552,178.69213 C 162.55136,179.29753 162.50532,185.3991 162.8232,192.25118 C 163.29082,202.33074 163.09603,205.47212 161.80307,208.70356 C 160.92411,210.90029 159.85631,212.69762 159.43017,212.69762 C 159.00404,212.69762 158.41072,213.63322 158.11168,214.77673 C 157.72079,216.27152 156.91514,216.76317 155.24505,216.52612 C 153.25435,216.24356 152.96299,215.69795 153.2079,212.71123 C 153.36508,210.79438 153.92758,208.79216 154.4579,208.26184 C 155.68163,207.03811 155.72284,202.69762 154.51073,202.69762 C 154.00947,202.69762 149.84697,204.31209 145.26073,206.28533 C 140.6745,208.25857 131.71927,211.59542 125.36023,213.70055 C 119.0012,215.80569 112.43627,218.35372 110.77151,219.36284 C 102.92026,224.12203 99.399411,226.85186 99.954341,227.74976 C 100.28763,228.28902 100.97922,228.47135 101.49122,228.15491 C 102.00321,227.83848 102.42212,228.23712 102.42212,229.04078 C 102.42212,231.82488 97.260011,232.52853 84.009261,231.55065 C 71.770251,230.64744 71.158481,230.69567 67.609071,232.84363 C 48.497661,244.4091 31.506381,266.45422 27.743021,284.56732 C 25.847961,293.68831 26.453131,313.52913 29.012811,326.19762 C 29.901831,330.59762 30.858561,337.49493 31.138871,341.52497 L 31.648531,348.85231 L 28.785331,348.52497 C 26.240941,348.23407 25.858671,347.72217 25.352251,343.92775 C 24.652461,338.68442 23.028211,336.68142 21.632221,339.34026 C 18.878161,344.5857 17.189751,364.75787 16.915111,395.69762 L 16.688751,421.19762 L 12.934251,435.19762 C 9.2745512,448.84408 8.6223912,451.77069 6.4719712,464.19762 C 3.8902712,479.11689 5.9981212,502.40249 12.355881,529.19762 C 12.877881,531.39762 13.809241,536.12262 14.425571,539.69762 C 15.041901,543.27262 17.028571,552.49762 18.840401,560.19762 C 21.947671,573.4031 24.464331,586.89603 26.580861,601.69762 C 27.124461,605.49924 28.398511,609.42555 29.649861,611.15551 C 31.968111,614.36047 32.004641,614.94641 30.885261,630.9687 C 30.324921,638.98902 30.571531,645.24593 31.850881,655.4687 C 34.026181,672.85063 35.048151,676.88129 38.481831,681.62134 C 40.006961,683.72674 42.263491,687.41769 43.496321,689.82347 C 44.729151,692.22925 45.919561,693.66434 46.141661,693.01256 C 46.678021,691.4386 42.629821,677.94402 41.391761,677.17886 C 40.858461,676.84926 40.422121,675.25614 40.422121,673.6386 C 40.422121,671.23642 40.843491,670.69762 42.722121,670.69762 C 43.987121,670.69762 45.531871,670.18787 46.154901,669.56484 C 46.777931,668.94181 48.019351,668.71282 48.913601,669.05598 C 50.965001,669.84317 56.088581,681.03475 57.563481,687.95013 C 59.271941,695.96057 62.729061,702.82312 67.031051,706.74371 C 74.852531,713.87174 75.215561,713.10045 68.956921,702.65201 C 66.501071,698.5521 63.074171,690.69762 61.341611,685.19762 C 59.609041,679.69762 57.073081,672.56542 55.706151,669.34828 C 54.167401,665.72678 53.576321,663.14342 54.154241,662.5655 C 56.863851,659.85589 61.760831,666.79207 64.386641,677.05889 C 67.808631,690.43874 74.324531,702.89086 82.381461,711.44762 C 85.005091,714.23402 87.422121,714.35527 87.422121,711.70048 C 87.422121,710.60206 85.889081,706.43956 84.015371,702.45048 C 76.840491,687.17537 73.504531,676.87889 71.945791,665.19762 C 70.841391,656.92122 70.366801,655.86253 66.823971,653.77221 C 62.672921,651.32303 62.343501,648.05956 65.909191,644.70977 C 68.196461,642.56099 68.716021,642.4691 72.376921,643.56593 C 74.748551,644.27649 79.907471,647.79182 85.139851,652.26272 C 89.970101,656.39001 94.473161,660.20833 95.146661,660.74789 C 95.820151,661.28744 98.312601,661.995 100.68543,662.32023 C 103.91298,662.76262 105.32557,662.51888 106.29351,661.35258 C 108.12926,659.14065 106.80095,655.94488 103.29151,654.13008 C 95.110391,649.89946 90.142761,642.97727 83.963721,627.19762 C 81.093591,619.86807 77.249451,615.0088 71.501721,611.44478 C 69.620511,610.27829 65.641201,607.0528 62.658811,604.27703 C 57.821671,599.775 57.291971,598.88704 57.752101,596.05159 C 58.035801,594.30337 57.659971,578.33821 56.916931,560.57347 C 56.173881,542.80873 55.743411,527.98677 55.960331,527.6358 C 56.177241,527.28482 57.269891,521.1102 58.388421,513.91442 C 60.711761,498.96787 61.358171,462.39417 59.321251,461.13528 C 56.927051,459.65558 54.283921,464.30693 53.366321,471.61472 C 52.321101,479.93887 51.988281,480.69762 49.382161,480.69762 C 46.822841,480.69762 45.993661,477.07102 46.796581,469.38904 C 47.572911,461.96152 51.584381,454.83295 58.890811,447.89698 C 63.114581,443.88738 64.362011,441.81151 66.662841,434.96342 C 68.170241,430.47686 70.107241,422.72844 70.967291,417.74471 C 71.906581,412.30185 73.750551,406.22539 75.584961,402.52813 C 78.565221,396.52137 78.623301,396.12956 77.992741,386.28526 C 77.547251,379.33024 77.944171,370.0998 79.270901,356.56144 C 81.288161,335.97669 81.158751,333.44741 77.575201,323.41923 C 76.439511,320.24112 74.331621,312.84211 72.890991,306.97698 C 69.815851,294.45736 70.099891,289.69762 73.922121,289.69762 C 75.939381,289.69762 76.423251,290.30791 76.895321,293.44762 C 79.921701,313.57586 89.573971,339.5255 95.879381,344.48534 C 101.10893,348.5989 110.18471,349.79615 137.71193,350.00373 C 151.85298,350.11037 163.53525,349.9445 163.67252,349.63514 C 163.8098,349.32577 167.70702,348.33575 172.33301,347.4351 C 180.31891,345.88029 180.98728,345.54237 185.56054,340.74758 C 188.36005,337.81246 190.73058,336.12001 192.46177,335.76124 M 108.02782,343.77358 C 104.73128,343.11758 101.04187,338.81727 101.91461,336.64812 C 102.23559,335.85035 104.24199,334.39174 106.37329,333.40676 C 110.76001,331.37946 114.3493,331.85468 117.03092,334.81784 C 120.90044,339.09362 114.83414,345.12801 108.02782,343.77358 z M 91.088791,254.03095 C 89.458141,252.40031 90.740171,250.02481 94.369161,247.95268 C 97.702771,246.0492 98.348041,245.13657 98.611451,241.95268 C 98.852181,239.04301 99.387841,238.13103 100.99074,237.90184 C 103.15533,237.59233 105.42212,241.02368 105.42212,244.60981 C 105.42212,249.80941 94.226201,257.16837 91.088791,254.03095 z M 115.42212,235.76777 C 110.31692,234.74695 107.24981,232.82123 107.63755,230.88015 C 107.93413,229.39542 109.32655,229.23889 119.48148,229.54868 C 126.82212,229.77262 134.05514,229.35606 139.45572,228.39834 C 164.9884,223.87043 168.71457,223.74071 169.23042,227.36173 C 169.61121,230.03473 169.41799,230.09633 152.44945,232.71134 C 145.03948,233.85329 137.16448,235.20636 134.94945,235.71817 C 130.36022,236.77856 120.60114,236.80335 115.42212,235.76777 z M 62.422121,711.77435 C 62.422121,710.4851 57.442511,704.69762 56.333231,704.69762 C 54.744361,704.69762 55.340641,706.44734 58.011011,709.62089 C 60.569901,712.66195 62.422121,713.56619 62.422121,711.77435 z M 69.811061,596.12644 C 70.717301,593.76481 73.465471,570.57679 72.939911,569.72641 C 72.486421,568.99265 73.513271,557.72416 75.468951,541.97297 C 76.030601,537.44942 78.018691,529.5256 79.886941,524.36449 C 83.096551,515.49779 83.207311,514.7662 81.896831,511.08914 C 81.134021,508.9488 80.492671,505.39762 80.471611,503.19762 C 80.418301,497.62869 83.931101,471.74413 85.967881,462.69762 C 89.111471,448.73515 89.008391,443.25571 85.353771,430.05374 C 83.548641,423.53287 81.645461,417.63512 81.124481,416.94762 C 79.624161,414.96778 78.510231,415.47632 77.838821,418.44762 C 75.882421,427.10555 71.033531,442.75463 69.240431,446.19762 C 67.309511,449.90526 67.134471,452.13454 66.845641,476.69762 C 66.609901,496.74614 66.057461,506.28737 64.576441,515.88902 C 62.883211,526.86655 62.681321,532.20068 63.081411,555.38902 C 63.520171,580.81823 64.219461,588.63803 66.618951,594.94762 C 67.795371,598.04105 68.917361,598.4554 69.811061,596.12644 z M 192.07018,69.870019 C 190.10414,69.260991 187.98546,68.490801 185.6668,67.560805 L 182.41147,66.255125 L 174.6668,73.826892 C 166.06901,82.232723 162.55739,84.837022 157.51413,86.547724 C 155.63974,87.183528 153.47672,88.602357 152.70743,89.700676 C 151.93813,90.798995 150.20923,91.69762 148.86542,91.69762 C 146.83055,91.69762 146.42212,91.208067 146.42212,88.769049 C 146.42212,87.158334 145.65338,85.071739 144.71381,84.13217 C 143.10274,82.521095 142.96029,82.588175 142.21111,85.310742 C 140.77753,90.520428 143.35514,97.82803 145.88557,95.72796 C 149.94431,92.3595 154.41091,107.06086 151.05487,112.74219 C 148.83908,116.49322 148.99148,118.73475 151.93833,125.73614 C 153.32224,129.02417 154.71252,134.52311 155.02784,137.95601 C 155.62326,144.43832 157.66176,152.01433 160.03381,156.56047 C 160.7906,158.01091 161.41257,160.19666 161.41596,161.41769 C 161.4196,162.73065 162.67454,164.56371 164.48732,165.90395 C 166.17317,167.15036 168.26251,169.66636 169.13028,171.49505 C 172.11816,177.79155 178.49884,183.70177 184.42212,185.65941 C 187.70355,186.74392 189.44326,187.1747 192.5047,186.93025 M 184.67268,136.99458 C 183.73876,136.64832 183.58449,134.43348 184.06178,128.22411 C 184.67015,120.30944 184.59381,119.85989 182.44638,118.71061 C 181.15667,118.02038 178.85123,117.77702 177.05728,118.14175 C 172.11158,119.14725 171.22684,119.07406 165.92212,117.22053 C 157.36688,114.23124 155.94177,113.30239 155.61398,110.50193 C 155.32301,108.01601 157.37828,106.29949 160.06856,106.78153 C 160.53802,106.86565 165.19712,106.86687 170.42212,106.78425 C 179.00698,106.64849 179.73513,106.49259 177.98099,105.16583 C 176.64441,104.15489 173.51166,103.69763 167.92212,103.69763 C 159.20355,103.69763 155.59562,102.29383 156.72826,99.34223 C 157.25558,97.96804 159.00103,97.69762 167.34368,97.69762 C 172.83506,97.69762 178.36169,98.18229 179.62507,98.77467 C 180.88845,99.36705 183.47244,101.93965 185.36729,104.49154 C 189.66606,110.28095 190.97587,117.96616 189.40759,128.19763 C 188.32168,135.28214 186.94625,137.83754 184.67268,136.99458 z M 192.54945,11.724251 C 189.24429,13.255616 186.18547,15.158495 183.92212,17.175545 C 178.45254,22.049926 176.68253,22.792895 169.27158,23.325125 C 165.22937,23.615425 160.93196,24.332075 159.72176,24.917695 C 158.51156,25.503305 156.33458,28.505855 154.88402,31.590035 C 151.59648,38.579985 149.42584,40.940245 142.89568,44.625635 C 136.62332,48.165535 135.43422,50.676625 135.01529,61.267135 C 134.80212,66.656085 133.85503,71.564798 132.06005,76.584056 C 129.83369,82.809535 129.57709,84.559437 130.42749,87.717568 C 130.98243,89.778459 132.04219,91.967343 132.78251,92.581753 C 133.88271,93.494839 134.24511,92.319899 134.76678,86.148469 C 135.50259,77.44388 136.46392,75.136723 139.64181,74.448587 C 140.89598,74.177011 142.65295,73.645547 143.54618,73.267556 C 144.61991,72.813182 146.3142,73.629207 148.54618,75.675717 C 155.3758,81.937826 158.82422,80.676154 171.92212,67.123175 C 181.2934,57.426297 185.37796,55.0661 192.55228,56.025949"
     id="path1349"
     sodipodi:nodetypes="csssssssssssssssssscccssscsssssssssssssssssssssssscccssssssssssssssssssssssssssssssssssssssssccsscccsccscscccscccccssssssssssssscccssssssssssssccccccssssssssssssssssssssssssssssssssscsssssssssssssssssssssssssscccssssscccssssssccssssssssssccsssssccsssccsssssssssssccssssccsssssssssccssccssssccsssssssssssssssssssscccsscccsssssssssssssssssssssssscssssssssssssssssssssssssssssssssssssccsssccssssccsssssscccscccsssssssssssssccccccssssssssssssssccccccssssssssssccssccssssssssss" />
  <path
     sodipodi:type="arc"
     style="opacity:1;fill:none;fill-opacity:1;fill-rule:nonzero;stroke:#0000fe;stroke-width:4;stroke-linecap:butt;stroke-linejoin:miter;stroke-miterlimit:4;stroke-dasharray:none;stroke-dashoffset:0;stroke-opacity:1"
     id="path2380"
     sodipodi:cx="197.28279"
     sodipodi:cy="108.72103"
     sodipodi:rx="52.325901"
     sodipodi:ry="78.488853"
     d="M 197.28279,30.232178 A 52.325901,78.488853 0 0 1 197.28279,187.20988"
     transform="translate(-5.2928932,1.8805189)"
     sodipodi:start="4.712389"
     sodipodi:end="7.8539816"
     sodipodi:open="true" />
  <path
     style="fill:none;fill-opacity:1;fill-rule:nonzero;stroke:#0000fe;stroke-width:4;stroke-linecap:butt;stroke-linejoin:miter;stroke-miterlimit:4;stroke-dashoffset:0;stroke-opacity:1"
     d="M 192.33304,232.93103 L 302.64165,232.93103 L 302.64165,464.15493 L 192.33304,464.15493"
     id="rect3152"
     sodipodi:nodetypes="cccc" />
  <path
     style="fill:none;fill-opacity:1;fill-rule:nonzero;stroke:#0000fe;stroke-width:4;stroke-linecap:butt;stroke-linejoin:miter;stroke-miterlimit:4;stroke-dashoffset:0;stroke-opacity:1"
     d="M 192.33304,520.70266 L 306.17724,520.70266 L 306.17724,582.24152 L 214.96046,663.55905 L 192.25,663.55905"
     id="rect3154"
     sodipodi:nodetypes="ccccc" />
  <path
     style="fill:none;fill-opacity:1;fill-rule:nonzero;stroke:#0000fe;stroke-width:4;stroke-linecap:butt;stroke-linejoin:miter;stroke-miterlimit:4;stroke-dashoffset:0;stroke-opacity:1"
     d="M 210.30252,678.85613 L 320.96255,669.97599 L 310.41884,827.59505 L 222.80259,834.62599 L 210.30252,678.85613 z"
     id="rect3157"
     sodipodi:nodetypes="ccccc" />
  <path
     style="fill:none;fill-opacity:1;fill-rule:nonzero;stroke:#0000fe;stroke-width:4;stroke-linecap:butt;stroke-linejoin:miter;stroke-miterlimit:4;stroke-dashoffset:0;stroke-opacity:1"
     d="M 228.39549,903.26828 L 321.73359,903.26828 L 304.76304,1077.2373 L 256.67976,1077.2373 L 228.39549,903.26828 z"
     id="rect3160"
     sodipodi:nodetypes="ccccc" />
  <path
     style="fill:none;fill-opacity:1;fill-rule:nonzero;stroke:#0000fe;stroke-width:4;stroke-linecap:butt;stroke-linejoin:miter;stroke-miterlimit:4;stroke-dashoffset:0;stroke-opacity:1"
     d="M 247.1814,1143.3346 L 253.72257,1112.3655 L 298.83714,1112.3655 L 342.8976,1185.8574 L 329.30587,1214.0518 L 290.13035,1214.9725 L 247.1814,1143.3346 z"
     id="rect3163"
     sodipodi:nodetypes="ccccccc" />
  <path
     style="fill:none;fill-opacity:1;fill-rule:nonzero;stroke:#0000fe;stroke-width:4;stroke-linecap:butt;stroke-linejoin:miter;stroke-miterlimit:4;stroke-dashoffset:0;stroke-opacity:1"
     d="M 307.92924,314.78109 L 375.51197,301.52929 L 392.33561,444.52675 L 335.5533,455.66077 L 307.92924,314.78109 z"
     id="rect3166"
     sodipodi:nodetypes="ccccc" />
  <rect
     style="opacity:1;fill:none;fill-opacity:1;fill-rule:nonzero;stroke:#0000fe;stroke-width:4;stroke-linecap:butt;stroke-linejoin:miter;stroke-miterlimit:4;stroke-dasharray:none;stroke-dashoffset:0;stroke-opacity:1"
     id="rect3169"
     width="51.618793"
     height="123.03658"
     x="293.76501"
     y="517.12347"
     transform="matrix(0.9952456,-9.7397008e-2,9.7397008e-2,0.9952456,0,0)" />
  <path
     style="fill:none;fill-opacity:1;fill-rule:nonzero;stroke:#0000fe;stroke-width:4;stroke-linecap:butt;stroke-linejoin:miter;stroke-miterlimit:4;stroke-dashoffset:0;stroke-opacity:1"
     d="M 350.31132,634.24395 L 426.57638,649.39435 L 407.16927,747.08708 L 373.29846,740.35849 L 376.37852,669.16258 L 351.20875,701.43959 L 337.69576,697.74899 L 350.31132,634.24395 z"
     id="rect3171"
     sodipodi:nodetypes="cccccccc" />
  <path
     style="fill:none;fill-opacity:1;fill-rule:nonzero;stroke:#0000fe;stroke-width:2;stroke-linecap:butt;stroke-linejoin:miter;stroke-miterlimit:4;stroke-dasharray:12, 4;stroke-dashoffset:0;stroke-opacity:1"
     d="M 193,188.38052 L 216,188.38052 L 216,231.88052 L 193,231.88052"
     id="rect3177"
     sodipodi:nodetypes="cccc" />
  <path
     sodipodi:type="arc"
     style="opacity:1;fill:none;fill-opacity:1;fill-rule:nonzero;stroke:#0000fe;stroke-width:2;stroke-linecap:butt;stroke-linejoin:miter;stroke-miterlimit:4;stroke-dasharray:12, 4;stroke-dashoffset:0;stroke-opacity:1"
     id="path3180"
     sodipodi:cx="343"
     sodipodi:cy="266.25"
     sodipodi:rx="41"
     sodipodi:ry="40.25"
     d="M 384,266.25 A 41,40.25 0 1 1 302,266.25 A 41,40.25 0 1 1 384,266.25 z"
     transform="translate(-9.5,2.3805189)" />
  <path
     sodipodi:type="arc"
     style="opacity:1;fill:none;fill-opacity:1;fill-rule:nonzero;stroke:#0000fe;stroke-width:2;stroke-linecap:butt;stroke-linejoin:miter;stroke-miterlimit:4;stroke-dasharray:12, 4;stroke-dashoffset:0;stroke-opacity:1"
     id="path3182"
     sodipodi:cx="365.75"
     sodipodi:cy="465.25"
     sodipodi:rx="31.75"
     sodipodi:ry="20.75"
     d="M 397.5,465.25 A 31.75,20.75 0 1 1 334,465.25 A 31.75,20.75 0 1 1 397.5,465.25 z"
     transform="translate(0,1.8805189)" />
  <path
     sodipodi:type="arc"
     style="opacity:1;fill:none;fill-opacity:1;fill-rule:nonzero;stroke:#0000fe;stroke-width:2;stroke-linecap:butt;stroke-linejoin:miter;stroke-miterlimit:4;stroke-dasharray:12, 4;stroke-dashoffset:0;stroke-opacity:1"
     id="path3184"
     sodipodi:cx="384.5"
     sodipodi:cy="620.25"
     sodipodi:rx="30"
     sodipodi:ry="18.25"
     d="M 414.5,620.25 A 30,18.25 0 1 1 354.5,620.25 A 30,18.25 0 1 1 414.5,620.25 z"
     transform="translate(0,1.8805189)" />
  <path
     sodipodi:type="arc"
     style="font-size:36px;opacity:1;fill:none;fill-opacity:1;fill-rule:nonzero;stroke:#0000fe;stroke-width:2;stroke-linecap:butt;stroke-linejoin:miter;stroke-miterlimit:4;stroke-dasharray:12, 4;stroke-dashoffset:0;stroke-opacity:1"
     id="path3186"
     sodipodi:cx="271"
     sodipodi:cy="640"
     sodipodi:rx="55.5"
     sodipodi:ry="35"
     d="M 326.5,640 A 55.5,35 0 1 1 215.5,640 A 55.5,35 0 1 1 326.5,640 z"
     transform="matrix(0.8818083,-0.4716081,0.4716081,0.8818083,-269.79921,205.32902)" />
  <path
     sodipodi:type="arc"
     style="opacity:1;fill:none;fill-opacity:1;fill-rule:nonzero;stroke:#0000fe;stroke-width:2;stroke-linecap:butt;stroke-linejoin:miter;stroke-miterlimit:4;stroke-dasharray:12, 4;stroke-dashoffset:0;stroke-opacity:1"
     id="path3188"
     sodipodi:cx="273.25"
     sodipodi:cy="867.5"
     sodipodi:rx="45.75"
     sodipodi:ry="35"
     d="M 319,867.5 A 45.75,35 0 1 1 227.5,867.5 A 45.75,35 0 1 1 319,867.5 z"
     transform="translate(0,1.8805189)" />
  <path
     sodipodi:type="arc"
     style="opacity:1;fill:none;fill-opacity:1;fill-rule:nonzero;stroke:#0000fe;stroke-width:2;stroke-linecap:butt;stroke-linejoin:miter;stroke-miterlimit:4;stroke-dasharray:12, 4;stroke-dashoffset:0;stroke-opacity:1"
     id="path3190"
     sodipodi:cx="277"
     sodipodi:cy="1095.25"
     sodipodi:rx="25.5"
     sodipodi:ry="18.75"
     d="M 302.5,1095.25 A 25.5,18.75 0 1 1 251.5,1095.25 A 25.5,18.75 0 1 1 302.5,1095.25 z"
     transform="translate(0,1.8805189)" />
  <path
     style="fill:none;fill-opacity:1;fill-rule:nonzero;stroke:#0000fe;stroke-width:2;stroke-linecap:butt;stroke-linejoin:miter;stroke-miterlimit:4;stroke-dasharray:12, 4;stroke-dashoffset:0;stroke-opacity:1"
     d="M 192.5,466.38052 L 300,466.38052 L 300,517.88052 L 192.5,517.88052"
     id="rect3192"
     sodipodi:nodetypes="cccc" />
  <text
     xml:space="preserve"
     style="font-style:normal;font-variant:normal;font-weight:normal;font-stretch:normal;line-height:0%;font-family:'Times New Roman';-inkscape-font-specification:'Times New Roman';text-align:center;text-anchor:middle;fill:#000000;fill-opacity:1;stroke:none;stroke-width:1px;stroke-linecap:butt;stroke-linejoin:miter;stroke-opacity:1"
     x="303"
     y="54.88052"
     id="text3195"><tspan
       sodipodi:role="line"
       id="tspan3197"
       x="303"
       y="54.88052"
       style="font-size:36px;line-height:1.25">tête</tspan></text>
  <text
     xml:space="preserve"
     style="font-style:normal;font-variant:normal;font-weight:normal;font-stretch:normal;line-height:0%;font-family:'Times New Roman';-inkscape-font-specification:'Times New Roman';text-align:center;text-anchor:middle;fill:#000000;fill-opacity:1;stroke:none;stroke-width:1px;stroke-linecap:butt;stroke-linejoin:miter;stroke-opacity:1"
     x="287"
     y="180.88052"
     id="text3199"><tspan
       sodipodi:role="line"
       id="tspan3201"
       x="287"
       y="180.88052"
       style="font-size:36px;line-height:1.25">cou</tspan></text>
  <text
     xml:space="preserve"
     style="font-style:normal;font-variant:normal;font-weight:normal;font-stretch:normal;line-height:0%;font-family:'Times New Roman';-inkscape-font-specification:'Times New Roman';text-align:center;text-anchor:middle;fill:#000000;fill-opacity:1;stroke:none;stroke-width:1px;stroke-linecap:butt;stroke-linejoin:miter;stroke-opacity:1"
     x="447"
     y="217.88052"
     id="text3203"><tspan
       sodipodi:role="line"
       id="tspan3205"
       x="447"
       y="217.88052"
       style="font-size:36px;line-height:1.25">épaule</tspan></text>
  <text
     xml:space="preserve"
     style="font-style:normal;font-variant:normal;font-weight:normal;font-stretch:normal;line-height:0%;font-family:'Times New Roman';-inkscape-font-specification:'Times New Roman';text-align:center;text-anchor:middle;fill:#000000;fill-opacity:1;stroke:none;stroke-width:1px;stroke-linecap:butt;stroke-linejoin:miter;stroke-opacity:1"
     x="483"
     y="289.88052"
     id="text3207"><tspan
       sodipodi:role="line"
       id="tspan3209"
       x="483"
       y="289.88052"
       style="font-size:36px;line-height:1.25">thorax</tspan></text>
  <text
     xml:space="preserve"
     style="font-style:normal;font-variant:normal;font-weight:normal;font-stretch:normal;line-height:0%;font-family:'Times New Roman';-inkscape-font-specification:'Times New Roman';text-align:center;text-anchor:middle;fill:#000000;fill-opacity:1;stroke:none;stroke-width:1px;stroke-linecap:butt;stroke-linejoin:miter;stroke-opacity:1"
     x="475"
     y="360.88052"
     id="text3211"><tspan
       sodipodi:role="line"
       id="tspan3213"
       x="475"
       y="360.88052"
       style="font-size:36px;line-height:1.25">bras</tspan></text>
  <text
     xml:space="preserve"
     style="font-style:normal;font-variant:normal;font-weight:normal;font-stretch:normal;line-height:0%;font-family:'Times New Roman';-inkscape-font-specification:'Times New Roman';text-align:center;text-anchor:middle;fill:#000000;fill-opacity:1;stroke:none;stroke-width:1px;stroke-linecap:butt;stroke-linejoin:miter;stroke-opacity:1"
     x="488"
     y="434.88052"
     id="text3215"><tspan
       sodipodi:role="line"
       id="tspan3217"
       x="488"
       y="434.88052"
       style="font-size:36px;line-height:1.25">coude</tspan></text>
  <text
     xml:space="preserve"
     style="font-style:normal;font-variant:normal;font-weight:normal;font-stretch:normal;line-height:0%;font-family:'Times New Roman';-inkscape-font-specification:'Times New Roman';text-align:center;text-anchor:middle;fill:#000000;fill-opacity:1;stroke:none;stroke-width:1px;stroke-linecap:butt;stroke-linejoin:miter;stroke-opacity:1"
     x="526"
     y="518.88049"
     id="text3219"><tspan
       sodipodi:role="line"
       id="tspan3221"
       x="526"
       y="518.88049"
       style="font-size:36px;line-height:1.25">avant-bras</tspan></text>
  <text
     xml:space="preserve"
     style="font-style:normal;font-variant:normal;font-weight:normal;font-stretch:normal;line-height:0%;font-family:'Times New Roman';-inkscape-font-specification:'Times New Roman';text-align:center;text-anchor:middle;fill:#000000;fill-opacity:1;stroke:none;stroke-width:1px;stroke-linecap:butt;stroke-linejoin:miter;stroke-opacity:1"
     x="518"
     y="630.88049"
     id="text3223"><tspan
       sodipodi:role="line"
       id="tspan3225"
       x="518"
       y="630.88049"
       style="font-size:36px;line-height:1.25">poignet</tspan></text>
  <text
     xml:space="preserve"
     style="font-style:normal;font-variant:normal;font-weight:normal;font-stretch:normal;line-height:0%;font-family:'Times New Roman';-inkscape-font-specification:'Times New Roman';text-align:center;text-anchor:middle;fill:#000000;fill-opacity:1;stroke:none;stroke-width:1px;stroke-linecap:butt;stroke-linejoin:miter;stroke-opacity:1"
     x="498"
     y="719.88049"
     id="text3227"><tspan
       sodipodi:role="line"
       id="tspan3229"
       x="498"
       y="719.88049"
       style="font-size:36px;line-height:1.25">main</tspan></text>
  <text
     xml:space="preserve"
     style="font-style:normal;font-variant:normal;font-weight:normal;font-stretch:normal;line-height:0%;font-family:'Times New Roman';-inkscape-font-specification:'Times New Roman';text-align:center;text-anchor:middle;fill:#000000;fill-opacity:1;stroke:none;stroke-width:1px;stroke-linecap:butt;stroke-linejoin:miter;stroke-opacity:1"
     x="404"
     y="803.88049"
     id="text3231"><tspan
       sodipodi:role="line"
       id="tspan3233"
       x="404"
       y="803.88049"
       style="font-size:36px;line-height:1.25">cuisse</tspan></text>
  <text
     xml:space="preserve"
     style="font-style:normal;font-variant:normal;font-weight:normal;font-stretch:normal;line-height:0%;font-family:'Times New Roman';-inkscape-font-specification:'Times New Roman';text-align:center;text-anchor:middle;fill:#000000;fill-opacity:1;stroke:none;stroke-width:1px;stroke-linecap:butt;stroke-linejoin:miter;stroke-opacity:1"
     x="405"
     y="903.88049"
     id="text3235"><tspan
       sodipodi:role="line"
       id="tspan3237"
       x="405"
       y="903.88049"
       style="font-size:36px;line-height:1.25">genou</tspan></text>
  <text
     xml:space="preserve"
     style="font-style:normal;font-variant:normal;font-weight:normal;font-stretch:normal;line-height:0%;font-family:'Times New Roman';-inkscape-font-specification:'Times New Roman';text-align:center;text-anchor:middle;fill:#000000;fill-opacity:1;stroke:none;stroke-width:1px;stroke-linecap:butt;stroke-linejoin:miter;stroke-opacity:1"
     x="403"
     y="998.88049"
     id="text3239"><tspan
       sodipodi:role="line"
       id="tspan3241"
       x="403"
       y="998.88049"
       style="font-size:36px;line-height:1.25">jambe</tspan></text>
  <text
     xml:space="preserve"
     style="font-style:normal;font-variant:normal;font-weight:normal;font-stretch:normal;line-height:0%;font-family:'Times New Roman';-inkscape-font-specification:'Times New Roman';text-align:center;text-anchor:middle;fill:#000000;fill-opacity:1;stroke:none;stroke-width:1px;stroke-linecap:butt;stroke-linejoin:miter;stroke-opacity:1"
     x="401"
     y="1064.8805"
     id="text3243"><tspan
       sodipodi:role="line"
       id="tspan3245"
       x="401"
       y="1064.8805"
       style="font-size:36px;line-height:1.25">cheville</tspan></text>
  <text
     xml:space="preserve"
     style="font-style:normal;font-variant:normal;font-weight:normal;font-stretch:normal;line-height:0%;font-family:'Times New Roman';-inkscape-font-specification:'Times New Roman';text-align:center;text-anchor:middle;fill:#000000;fill-opacity:1;stroke:none;stroke-width:1px;stroke-linecap:butt;stroke-linejoin:miter;stroke-opacity:1"
     x="391"
     y="1134.8805"
     id="text3247"><tspan
       sodipodi:role="line"
       id="tspan3249"
       x="391"
       y="1134.8805"
       style="font-size:36px;line-height:1.25">pied</tspan></text>
  <text
     xml:space="preserve"
     style="font-style:normal;font-variant:normal;font-weight:normal;font-stretch:normal;line-height:0%;font-family:'Times New Roman';-inkscape-font-specification:'Times New Roman';text-align:center;text-anchor:middle;fill:#000000;fill-opacity:1;stroke:none;stroke-width:1px;stroke-linecap:butt;stroke-linejoin:miter;stroke-opacity:1"
     x="531"
     y="574.88049"
     id="text3251"><tspan
       sodipodi:role="line"
       id="tspan3253"
       x="531"
       y="574.88049"
       style="font-size:36px;line-height:1.25">hanche</tspan></text>
  <path
     style="fill:none;fill-rule:evenodd;stroke:#000000;stroke-width:1px;stroke-linecap:butt;stroke-linejoin:miter;marker-end:url(#DotM);stroke-opacity:1"
     d="M 329,58.880518 L 277,58.880518 L 225.21058,88.781153"
     id="path3255"
     sodipodi:nodetypes="ccc" />
  <path
     sodipodi:type="arc"
     style="opacity:0.5;fill:#ffffff;fill-opacity:1;fill-rule:nonzero;stroke:none;stroke-width:4;stroke-linecap:butt;stroke-linejoin:miter;stroke-miterlimit:4;stroke-dasharray:none;stroke-dashoffset:0;stroke-opacity:1"
     id="path2447"
     sodipodi:cx="191.27238"
     sodipodi:cy="211.36424"
     sodipodi:rx="22.273863"
     sodipodi:ry="18.738329"
     d="M 213.54625,211.36424 A 22.273863,18.738329 0 1 1 168.99852,211.36424 A 22.273863,18.738329 0 1 1 213.54625,211.36424 z"
     transform="translate(-0.3535534,0.7071068)" />
  <path
     style="fill:none;fill-rule:evenodd;stroke:#000000;stroke-width:1px;stroke-linecap:butt;stroke-linejoin:miter;marker-end:url(#DotM);stroke-opacity:1"
     d="M 313,187.88052 L 260,187.88052 L 206.11731,202.31834"
     id="path4035" />
  <path
     style="fill:none;fill-rule:evenodd;stroke:#000000;stroke-width:1px;stroke-linecap:butt;stroke-linejoin:miter;marker-end:url(#DotM);stroke-opacity:1"
     d="M 493,228.88052 L 398,228.88052 L 350.50962,256.2991"
     id="path4552" />
  <path
     style="fill:none;fill-rule:evenodd;stroke:#000000;stroke-width:1px;stroke-linecap:butt;stroke-linejoin:miter;marker-end:url(#DotM);stroke-opacity:1"
     d="M 528,296.88052 L 435,296.88052 L 271.78496,340.61386"
     id="path5069" />
  <path
     style="fill:none;fill-rule:evenodd;stroke:#000000;stroke-width:1px;stroke-linecap:butt;stroke-linejoin:miter;marker-end:url(#DotM);stroke-opacity:1"
     d="M 504,366.88052 L 442,366.88052 L 365.52405,387.37219"
     id="path5586" />
  <path
     style="fill:none;fill-rule:evenodd;stroke:#000000;stroke-width:1px;stroke-linecap:butt;stroke-linejoin:miter;marker-end:url(#DotM);stroke-opacity:1"
     d="M 531,440.88052 L 444,440.88052 L 378.28719,458.48821"
     id="path6103" />
  <path
     style="fill:none;fill-rule:evenodd;stroke:#000000;stroke-width:1px;stroke-linecap:butt;stroke-linejoin:miter;marker-end:url(#DotM);stroke-opacity:1"
     d="M 599,526.88052 L 450,526.88052 L 379.0061,545.90328"
     id="path6620" />
  <text
     xml:space="preserve"
     style="font-style:normal;font-variant:normal;font-weight:normal;font-stretch:normal;line-height:0%;font-family:'Times New Roman';-inkscape-font-specification:'Times New Roman';text-align:center;text-anchor:middle;fill:#000000;fill-opacity:1;stroke:none;stroke-width:1px;stroke-linecap:butt;stroke-linejoin:miter;stroke-opacity:1"
     x="543"
     y="474.88052"
     id="text7137"><tspan
       sodipodi:role="line"
       id="tspan7139"
       x="543"
       y="474.88052"
       style="font-size:36px;line-height:1.25">lombaires</tspan></text>
  <path
     style="fill:none;fill-rule:evenodd;stroke:#000000;stroke-width:1px;stroke-linecap:butt;stroke-linejoin:miter;marker-end:url(#DotM);stroke-opacity:1"
     d="M 612,480.88052 L 470,480.88052 L 270,500.88052"
     id="path7141"
     sodipodi:nodetypes="ccc" />
  <path
     style="fill:none;fill-rule:evenodd;stroke:#000000;stroke-width:1px;stroke-linecap:butt;stroke-linejoin:miter;marker-end:url(#DotM);stroke-opacity:1"
     d="M 581,580.88052 L 478,580.88052 L 290.70964,631.06482"
     id="path7658" />
  <path
     style="fill:none;fill-rule:evenodd;stroke:#000000;stroke-width:1px;stroke-linecap:butt;stroke-linejoin:miter;marker-end:url(#DotM);stroke-opacity:1"
     d="M 574,646.88052 L 454,646.88052 L 397.6843,621.79077"
     id="path8175"
     sodipodi:nodetypes="ccc" />
  <path
     style="fill:none;fill-rule:evenodd;stroke:#000000;stroke-width:1px;stroke-linecap:butt;stroke-linejoin:miter;marker-end:url(#DotM);stroke-opacity:1"
     d="M 534,726.88052 L 460,726.88052 L 396.17949,690.03373"
     id="path8692" />
  <path
     style="fill:none;fill-rule:evenodd;stroke:#000000;stroke-width:1px;stroke-linecap:butt;stroke-linejoin:miter;marker-end:url(#DotM);stroke-opacity:1"
     d="M 446,811.88052 L 361,811.88052 L 291.38045,771.68566"
     id="path9209" />
  <path
     style="fill:none;fill-rule:evenodd;stroke:#000000;stroke-width:1px;stroke-linecap:butt;stroke-linejoin:miter;marker-end:url(#DotM);stroke-opacity:1"
     d="M 447,918.88052 L 364,918.88052 L 305,859.88052"
     id="path9726" />
  <path
     style="fill:none;fill-rule:evenodd;stroke:#000000;stroke-width:1px;stroke-linecap:butt;stroke-linejoin:miter;marker-end:url(#DotM);stroke-opacity:1"
     d="M 445,1010.8805 L 353,1010.8805 L 288.02757,973.36867"
     id="path10243" />
  <path
     style="fill:none;fill-rule:evenodd;stroke:#000000;stroke-width:1px;stroke-linecap:butt;stroke-linejoin:miter;marker-end:url(#DotM);stroke-opacity:1"
     d="M 457,1073.8805 L 344,1073.8805 L 296.54071,1101.2811"
     id="path10760" />
  <path
     style="fill:none;fill-rule:evenodd;stroke:#000000;stroke-width:1px;stroke-linecap:butt;stroke-linejoin:miter;marker-end:url(#DotM);stroke-opacity:1"
     d="M 422,1151.8805 L 354,1151.8805 L 310.17468,1177.1831"
     id="path11277" />
  <path
     sodipodi:type="arc"
     style="opacity:0.5;fill:#ffffff;fill-opacity:1;fill-rule:nonzero;stroke:none;stroke-width:4;stroke-linecap:butt;stroke-linejoin:miter;stroke-miterlimit:4;stroke-dasharray:none;stroke-dashoffset:0;stroke-opacity:1"
     id="path3225"
     sodipodi:cx="191.27238"
     sodipodi:cy="211.36424"
     sodipodi:rx="22.273863"
     sodipodi:ry="24.04163"
     d="M 213.54625,211.36424 A 22.273863,24.04163 0 1 1 168.99852,211.36424 A 22.273863,24.04163 0 1 1 213.54625,211.36424 z"
     transform="translate(0.3535537,280.36784)" />
</svg>
